<?xml version="1.0" encoding="UTF-8" standalone="no"?>
<svg
   id="e1b1e002-d924-4d22-bacb-5c9d93bf569d"
   data-name="Layer 1"
   width="1119"
   height="732.13"
   viewBox="0 0 1119 732.13"
   version="1.1"
   sodipodi:docname="page3.svg"
   inkscape:version="1.1 (c68e22c387, 2021-05-23)"
   xmlns:inkscape="http://www.inkscape.org/namespaces/inkscape"
   xmlns:sodipodi="http://sodipodi.sourceforge.net/DTD/sodipodi-0.dtd"
   xmlns:xlink="http://www.w3.org/1999/xlink"
   xmlns="http://www.w3.org/2000/svg"
   xmlns:svg="http://www.w3.org/2000/svg"
   xmlns:rdf="http://www.w3.org/1999/02/22-rdf-syntax-ns#"
   xmlns:cc="http://creativecommons.org/ns#"
   xmlns:dc="http://purl.org/dc/elements/1.1/">
  <sodipodi:namedview
     id="namedview461"
     pagecolor="#ffffff"
     bordercolor="#666666"
     borderopacity="1.0"
     inkscape:pageshadow="2"
     inkscape:pageopacity="0.0"
     inkscape:pagecheckerboard="0"
     showgrid="false"
     inkscape:zoom="0.28068785"
     inkscape:cx="1457.1347"
     inkscape:cy="844.35431"
     inkscape:window-width="1920"
     inkscape:window-height="1000"
     inkscape:window-x="-11"
     inkscape:window-y="-11"
     inkscape:window-maximized="1"
     inkscape:current-layer="e1b1e002-d924-4d22-bacb-5c9d93bf569d" />
  <defs
     id="defs10">
    <linearGradient
       id="a5379cfd-588e-41af-a564-cd72c8f0ee48"
       x1="729.01"
       y1="758.4"
       x2="729.01"
       y2="122.4"
       gradientUnits="userSpaceOnUse">
      <stop
         offset="0"
         stop-color="gray"
         stop-opacity="0.25"
         id="stop2" />
      <stop
         offset="0.54"
         stop-color="gray"
         stop-opacity="0.12"
         id="stop4" />
      <stop
         offset="1"
         stop-color="gray"
         stop-opacity="0.1"
         id="stop6" />
    </linearGradient>
    <linearGradient
       id="bd728978-41b2-43c0-bd97-469b38b81c56"
       x1="-861.71"
       y1="737.12"
       x2="-861.71"
       y2="290.85"
       gradientTransform="translate(1240.08)"
       xlink:href="#a5379cfd-588e-41af-a564-cd72c8f0ee48" />
  </defs>
  <title
     id="title12">gifts</title>
  <path
     d="m -6322.4171,-742.8164 h 3999.9999 V -3409.483 h -3999.9999 z"
     style="fill:#ffffff;fill-opacity:1;fill-rule:nonzero;stroke:none;stroke-width:0.133333"
     id="path1288" />
  <g
     id="g14166">
    <g
       id="g1805"
       transform="matrix(0.34776971,0,0,0.34776971,1202.6148,226.56011)">
      <path
         d="m -470.85047,748.05979 c 16.7333,331.45331 -206.12,501.62661 -527.5466,542.05331 -360.56003,45.3466 -730.77343,-15.8134 -1089.81333,-46.92 -135.2534,-11.72 -270.9467,-20.5334 -406.8,-19.7867 -128.024,0.6933 -266.6134,35.7333 -392.3787,16.3467 -314.3773,-48.4934 -476.3866,-371.09331 -427.4,-652.45331 22.8867,-131.44 73.424,-276.8534 187.0267,-356.68 114.2613,-80.28 247.168,-59.7467 372.432,-24.88 228.12,63.48 476.68,182.6 718.3866,135.9866 138.52,-26.72 259.2533,-105.16 390.8133,-152.1066 131.1734,-46.8 271.32,-75.96 410.7867,-78.1334 182.3733,-2.8533 368.86673,44.8 516.34673,156.24 155.52,117.52 238.8133,295.32 248.1466,480.3334"
         style="fill:#d73b85;fill-opacity:1;fill-rule:nonzero;stroke:none;stroke-width:0.133333"
         id="path1292" />
      <path
         d="m -701.65047,1026.0198 c 0,0 -125.64,88.5999 -269.96,11.8266 l 134.9734,-75.32001 134.9866,63.49341"
         style="fill:#6f3428;fill-opacity:1;fill-rule:nonzero;stroke:none;stroke-width:0.133333"
         id="path1294" />
      <path
         d="m -1626.6771,433.84639 c 0,0 -122.24,229.2534 -83.9734,296.9734 l 139.1867,-77.2667 -55.2133,-219.7067"
         style="fill:#6f3428;fill-opacity:1;fill-rule:nonzero;stroke:none;stroke-width:0.133333"
         id="path1296" />
      <path
         d="m -1679.3038,666.57979 c -15.2933,-11.4267 -30.0267,-24.2667 -44.1867,-38.2534 -27.8533,-27.64 -53.4933,-59.7066 -76.8666,-93.9333 v -0.053 c -15.6934,-22.9734 -30.36,-46.9734 -43.9467,-71.2534 -39.2933,-70.04 -70,-142.5333 -91.8266,-200.5866 -22.8,-60.56 -36.0534,-105.48 -39.5734,-115.76 -0.4,-1.2 -0.68,-1.9334 -0.8533,-2.16 l 66.12,-189.853404 c 31.96,-51.1733 49.8666,114.9067 49.8666,114.9067 8.8134,-5.1733 19.5067,-20.3467 25.8134,-28.5467 7.1066,-9.2666 12.5733,5.4134 13.5333,10.64 5.52,30.5334 -19.04,88.586704 -19.04,88.586704 l 157.6533,231.0667 c 9.6667,14.16 20.48,27.52 32.1867,39.8533 7.5067,7.96 15.4667,15.5333 23.7733,22.64 13.9867,59.4133 12.56,173.9733 -52.6533,232.7067"
         style="fill:#f9b384;fill-opacity:1;fill-rule:nonzero;stroke:none;stroke-width:0.133333"
         id="path1298" />
      <path
         d="m -1679.3038,666.57979 c -15.2933,-11.4267 -30.0267,-24.2667 -44.1867,-38.2534 49.3067,-56.48 87.0534,-150.1333 96.72,-193.96 -0.093,-0.093 -0.2,-0.1866 -0.2933,-0.28 -1.1467,-1.0933 -2.2133,-2.1866 -2.0667,-2.1866 0.1067,0 0.8,0.5333 2.48,1.9733 v 0 0 0 0 c -6.3733,47.2533 -22.8266,152.6 -52.6,232.6667 -0.013,0.013 -0.04,0.027 -0.053,0.04"
         style="fill:#eb9b76;fill-opacity:1;fill-rule:nonzero;stroke:none;stroke-width:0.133333"
         id="path1300" />
      <path
         d="m -701.63707,1026.0464 c -86.1334,-16.7733 -154.0267,-15.6933 -211.3334,-4.3333 -20.8133,4.16 -40.2,9.6133 -58.6266,16.16 l -17.3467,62.1333 -34.22673,122.88 -22.2266,79.8267 -20.24,72.4933 -11.3734,40.88 h -611 l 96.6667,-630.21331 -119.2933,-55.04 c 7.68,-11.3067 14.7333,-24.6133 21.2666,-39.3467 36.2134,-81.5866 55.6667,-205.2533 62.72,-257.6133 34.1067,29.3333 74.3067,51.28 118.1467,63.7867 52.0267,14.84 114.7333,27.6933 173.4133,26.32 2.0534,-0.053 4.04,-0.1067 6.0267,-0.16 135.72,-5.2934 196.28,35.9333 196.28,35.9333 30.6933,6.08 110.76,36.84 180.62673,67.6 30.8266,13.48 59.6533,27.0133 81.48,38.3733 58.68,30.6534 101.2666,85.12 117.0666,149.4267 l 51.9734,210.89331"
         style="fill:#ee6f57;fill-opacity:1;fill-rule:nonzero;stroke:none;stroke-width:0.133333"
         id="path1302" />
      <path
         d="m -971.59707,1037.8731 36.7866,-131.97331 21.84,115.81331 v 0 c -2.52,0.5067 -5.0266,1.0267 -7.4933,1.5733 -18,3.92 -34.9333,8.8267 -51.12,14.5734 -0.013,0 -0.013,0.013 -0.013,0.013"
         style="fill:#c85d49;fill-opacity:1;fill-rule:nonzero;stroke:none;stroke-width:0.133333"
         id="path1304" />
      <path
         d="m -1800.3571,534.33979 c -0.1067,-0.16 -0.2134,-0.32 -0.3334,-0.48 0.12,0.16 0.2267,0.32 0.3334,0.48 v 0 m -0.4267,-0.64 c -0.053,-0.067 -0.093,-0.1334 -0.1467,-0.2 0.053,0.067 0.093,0.1333 0.1467,0.2 m -56.8933,-95.1334 c -0.053,-0.1066 -0.1067,-0.2 -0.16,-0.2933 0,0 0,0 0,-0.013 0.053,0.1066 0.1066,0.2 0.16,0.3066"
         style="fill:#efc9c2;fill-opacity:1;fill-rule:nonzero;stroke:none;stroke-width:0.133333"
         id="path1306" />
      <path
         d="m -1800.3571,534.33979 v 0 c -0.1067,-0.16 -0.2134,-0.32 -0.3334,-0.48 -0.027,-0.053 -0.067,-0.1067 -0.093,-0.16 -0.053,-0.067 -0.093,-0.1334 -0.1467,-0.2 -15.3866,-22.6 -27.7333,-43.44 -56.7466,-94.9334 -0.053,-0.1066 -0.1067,-0.2 -0.16,-0.3066 4.6666,-1.5867 9.1333,-2.3334 13.4,-2.3334 37.9866,0 58.8533,59.0934 44.08,98.4134"
         style="fill:#f69e76;fill-opacity:1;fill-rule:nonzero;stroke:none;stroke-width:0.133333"
         id="path1308" />
      <path
         d="m -1023.1705,1222.8864 v 0 l 34.22673,-122.88 6.64,-23.7733 v 0 l -40.86673,146.6533"
         style="fill:#c89186;fill-opacity:1;fill-rule:nonzero;stroke:none;stroke-width:0.133333"
         id="path1310" />
      <path
         d="m -1480.9838,1272.4064 10.5333,-45.3867 c 270.6534,-20.3733 400.96,-72.96 488.14673,-150.7866 l -6.64,23.7733 -34.22673,122.88 -210.48,32.3467 c -11.4933,1.76 -22.8666,4.32 -34.0666,7.6266 -21.28,6.2667 -41.1734,8.4934 -59.5867,8.4934 -37.48,0 -68.7733,-9.2267 -92.9067,-12.3067 -3.8666,-0.5067 -7.7333,-0.7467 -11.6,-0.7467 -17.2933,0 -34.3466,4.9334 -49.1733,14.1067"
         style="fill:#c85d49;fill-opacity:1;fill-rule:nonzero;stroke:none;stroke-width:0.133333"
         id="path1312" />
      <path
         d="m -1936.1304,262.49979 v 0 c -22.8,-60.56 -36.0534,-105.48 -39.5734,-115.76 l 102.5867,-63.546704 c 3.92,57.826704 -41.8133,140.240004 -63.0133,179.306704"
         style="fill:#eb9b76;fill-opacity:1;fill-rule:nonzero;stroke:none;stroke-width:0.133333"
         id="path1314" />
      <path
         d="m -1287.3171,666.09979 c 5.9866,21.28 18.8666,39.8666 35.7466,53.2933 16.9467,13.3867 37.36,22.2 58.6667,26.0133 21.2933,3.8667 43.4533,2.8534 64.4533,-2.7733 10.5334,-2.76 20.76,-6.7733 30.4134,-11.96 9.7866,-4.9733 18.88,-11.2667 27.5866,-18.2133 l 3.0267,3.24 c -7.8267,8.3733 -16.92,15.6 -26.6533,21.8666 -9.8667,6.0667 -20.48,10.9867 -31.56,14.6 -22.2134,7.1734 -46.2667,8.6134 -69.3067,4.3734 -22.9733,-4.28 -45.2133,-14.1467 -62.8133,-29.8 -8.76,-7.8 -16.44,-16.8534 -22.2934,-27 -5.7333,-10.1867 -9.88,-21.2667 -11.6133,-32.6934 l 4.3467,-0.9466"
         style="fill:#ae5140;fill-opacity:1;fill-rule:nonzero;stroke:none;stroke-width:0.133333"
         id="path1316" />
      <path
         d="m -1038.1171,448.87309 -17,132.88 c -6.32,49.64 -49.2934,86.48 -99.3334,85.12 -53.6133,-1.4267 -94.9466,-45.4933 -94.9466,-97.2933 0,-5.0534 0.3866,-10.2267 1.1866,-15.4 l 3.0667,-19.44 12,-75.8 67.5467,-3.4667 127.48,-6.6"
         style="fill:#f9b384;fill-opacity:1;fill-rule:nonzero;stroke:none;stroke-width:0.133333"
         id="path1318" />
      <path
         d="m -1274.6905,229.95309 c 1.8934,-19.5867 11.0534,-42.9333 21.4934,-64.1067 19.9733,-40.4666 58.6133,-68.560004 103.2666,-75.000004 67.08,-9.68 153.82673,-0.24 201.05343,64.186704 53.2533,72.64 9,217.88 -48.0934,230.2667 -57.09333,12.3866 -277.72003,-155.3467 -277.72003,-155.3467"
         style="fill:#102048;fill-opacity:1;fill-rule:nonzero;stroke:none;stroke-width:0.133333"
         id="path1320" />
      <path
         d="m -1099.8105,482.99309 c -22.8,21.6 -75.3333,72.1467 -148.4,71.1867 l 15.0667,-95.24 67.5467,-3.4667 65.7866,27.52"
         style="fill:#e28b6d;fill-opacity:1;fill-rule:nonzero;stroke:none;stroke-width:0.133333"
         id="path1322" />
      <path
         d="m -1002.5838,264.20639 -10.1733,52.9334 -2.5067,12.96 -10.0133,52.08 -5.7334,29.8533 -7.1066,36.84 -34.7467,20.8667 c 0,0 -9.4933,6.3733 -26.9467,13.2533 l -0.053,0.053 c -26.3333,10.4667 -70.7333,22.0667 -127.7067,14.56 -3.9866,-0.5066 -7.7333,-1.4266 -11.2533,-2.68 -26.84,-9.1466 -40.6,-37.4133 -46.6267,-72.6 -4.44,-25.8666 -4.7733,-55.4933 -3.1333,-84.0933 2.56,-44.8667 10.0133,-87.2133 13.88,-108.2533 59.76,-53.4 141.3467,-63.12 201.84,-74.9467 l 70.28,109.1733"
         style="fill:#f9b384;fill-opacity:1;fill-rule:nonzero;stroke:none;stroke-width:0.133333"
         id="path1324" />
      <path
         d="m -1274.6905,229.95309 c 95.1867,-74.92 223.4134,0.9867 223.4134,0.9867 0,0 -19.6,118 18.3066,108.2533 37.90673,-9.7333 76.36003,-88.6267 76.36003,-88.6267 l -86.76003,-125.08 -189.7866,32.6934 -41.5334,71.7733"
         style="fill:#102048;fill-opacity:1;fill-rule:nonzero;stroke:none;stroke-width:0.133333"
         id="path1326" />
      <path
         d="m -1037.8771,343.07309 c 18.64,-32.7467 54.94663,-43.2533 74.46663,-18.4133 19.5067,24.84 20.2667,103 -75.70663,86.12 l 1.24,-67.7067"
         style="fill:#f9b384;fill-opacity:1;fill-rule:nonzero;stroke:none;stroke-width:0.133333"
         id="path1328" />
      <path
         d="m -1197.4505,317.20639 c -6.1866,16.6934 -15.7466,31.56 -21.9733,47.2134 -0.72,1.8933 -1.6533,4.0666 -2.1067,5.7333 -0.5066,1.6533 -0.7733,3.2667 -0.4933,4.4933 0.053,1.32 0.8,2.24 1.72,3.32 1.16,0.96 2.5733,1.9067 4.3733,2.5867 7.16,2.7467 16.0267,3.4267 24.6534,4.28 l 0.093,3.3333 c -8.7467,1.16 -17.7333,2.2 -27.2667,-0.56 -2.3733,-0.6266 -4.8,-1.88 -7.08,-3.6266 -2.1333,-1.9067 -4.2533,-4.6667 -4.6666,-7.7734 -0.64,-3.0533 -0.1334,-5.9066 0.56,-8.4133 0.6933,-2.5333 1.4533,-4.4133 2.3466,-6.5733 7,-16.8 17.4,-30.9467 26.8534,-45.5067 l 2.9866,1.4933"
         style="fill:#e28b6d;fill-opacity:1;fill-rule:nonzero;stroke:none;stroke-width:0.133333"
         id="path1330" />
      <path
         d="m -1133.6371,320.72639 c -2.3334,7.8667 -8.76,12.9067 -14.3467,11.2534 -5.5867,-1.6534 -8.2267,-9.3734 -5.8933,-17.24 2.32,-7.88 8.7466,-12.92 14.3333,-11.2667 5.5867,1.6533 8.2267,9.3733 5.9067,17.2533"
         style="fill:#102048;fill-opacity:1;fill-rule:nonzero;stroke:none;stroke-width:0.133333"
         id="path1332" />
      <path
         d="m -1234.7438,315.92639 c -2.3333,7.88 -8.7467,12.92 -14.3333,11.2667 -5.5867,-1.6533 -8.24,-9.3733 -5.9067,-17.2533 2.3333,-7.8667 8.7467,-12.9067 14.3333,-11.2534 5.5867,1.6534 8.24,9.3734 5.9067,17.24"
         style="fill:#102048;fill-opacity:1;fill-rule:nonzero;stroke:none;stroke-width:0.133333"
         id="path1334" />
      <path
         d="m -1169.2105,290.35309 c 4.8,-4.56 10.48,-8.3467 16.8934,-10.88 6.3866,-2.56 13.6,-3.64 20.68,-2.7867 7.08,0.8534 13.8133,3.6934 19.3866,7.7334 5.6,4.0266 10.16,9.1066 13.6934,14.72 l -2.5067,2.2 c -5.0533,-3.9467 -9.9733,-7.6934 -15.2133,-10.6 -5.2267,-2.8934 -10.7334,-4.8934 -16.4134,-5.6267 -5.68,-0.7733 -11.5333,-0.2133 -17.3333,1.2667 -5.8133,1.5066 -11.52,3.9866 -17.2933,6.7066 l -1.8934,-2.7333"
         style="fill:#102048;fill-opacity:1;fill-rule:nonzero;stroke:none;stroke-width:0.133333"
         id="path1336" />
      <path
         d="m -1219.3171,290.80639 c -4.6534,-7.4 -12.24,-10.92 -20,-10.9066 -3.8667,0.013 -7.76,0.92 -11.4934,2.56 -3.7466,1.64 -7.3066,4.0133 -11.0266,6.72 l -2.6,-2.0934 c 2.2133,-4.4 5.64,-8.36 10.0266,-11.2 4.36,-2.8666 9.7067,-4.5333 15.12,-4.4666 5.4,0.053 10.8534,1.7466 15.1467,5.0666 4.3067,3.2534 7.4133,8.16 8,13.28 l -3.1733,1.04"
         style="fill:#102048;fill-opacity:1;fill-rule:nonzero;stroke:none;stroke-width:0.133333"
         id="path1338" />
      <path
         d="m -1233.7038,412.76639 61.88,1.2934 c 0,0 -34.3067,46.5333 -59.5067,3.2266 l -2.3733,-4.52"
         style="fill:#ffffff;fill-opacity:1;fill-rule:nonzero;stroke:none;stroke-width:0.133333"
         id="path1340" />
      <path
         d="m -1023.0505,368.04639 c 0.027,-5.3333 0.9734,-10.6933 2.8934,-15.88 1.88,-5.16 4.8933,-10.1866 9.36,-14.16 4.4,-3.9733 10.6266,-6.4933 16.70663,-6.1866 6.0934,0.1866 11.48,2.92 15.5334,6.5066 l -1.6667,2.8934 c -4.8267,-1.4667 -9.4667,-2.44 -13.72,-1.92 -4.2267,0.5066 -8.00003,2.28 -11.26673,5.0933 -3.3066,2.8 -6,6.64 -8.3333,10.8 -2.32,4.2 -4.2133,8.76 -6.24,13.4933 l -3.2667,-0.64"
         style="fill:#e28b6d;fill-opacity:1;fill-rule:nonzero;stroke:none;stroke-width:0.133333"
         id="path1342" />
      <path
         d="m -1100.1705,430.17979 c -24.08,0 -43.5866,-19.52 -43.5866,-43.5867 0,-24.08 19.5066,-43.5867 43.5866,-43.5867 24.0667,0 43.5867,19.5067 43.5867,43.5867 0,24.0667 -19.52,43.5867 -43.5867,43.5867"
         style="fill:#f69e76;fill-opacity:1;fill-rule:nonzero;stroke:none;stroke-width:0.133333"
         id="path1344" />
      <path
         d="m -1285.4505,422.32639 v 0 c -2.88,-16.7733 -4.0266,-35.1333 -4.04,-53.76 0,-10.0933 0.3334,-20.28 0.9067,-30.3333 19.3333,4.4933 33.72,21.7733 33.72,42.4667 0,19.5066 -12.9067,36.0533 -30.5867,41.6266"
         style="fill:#f69e76;fill-opacity:1;fill-rule:nonzero;stroke:none;stroke-width:0.133333"
         id="path1346" />
      <path
         d="m -2131.8371,199.35309 c 0,0 124.1067,60.7333 101.0933,161.52 l -82.0666,22.9733 -19.0267,-184.4933"
         style="fill:#102048;fill-opacity:1;fill-rule:nonzero;stroke:none;stroke-width:0.133333"
         id="path1348" />
      <path
         d="m -2131.8371,199.35309 c 13.3333,-13.12 81.6133,-88.5867 79.24,-182.893304 -1.8133,-71.52 29.8933,-39.2134 33.9733,10.1333 0,0 17.44,-100.9333 65.52,-90.7067 l -14.12,19.3467 c 0,0 18.2267,-34.1867 32.9334,-25.04 14.72,9.1467 1.3866,38.4 1.3866,38.4 0,0 6.8667,-25.36 19.48,-27.2933 12.6134,-1.9334 24.1867,37.7866 -4.0266,141.4666 0,0 30.5733,-30.3066 42.64,-35.4133 12.0799,-5.12 11.2666,74.200004 -74.4134,158.613304 -85.6666,84.4134 -146.28,149.6934 -146.28,149.6934 l -36.3333,-156.3067"
         style="fill:#f9b384;fill-opacity:1;fill-rule:nonzero;stroke:none;stroke-width:0.133333"
         id="path1350" />
      <path
         d="m -2631.8638,612.85979 c 3.0107,4.6533 500.0267,-413.5067 500.0267,-413.5067 l 101.0933,161.52 -507.3053,597.3867 -93.8147,-345.4"
         style="fill:#708cd5;fill-opacity:1;fill-rule:nonzero;stroke:none;stroke-width:0.133333"
         id="path1352" />
      <path
         d="m -1952.2238,-63.433614 c -5.92,9.1334 -11.4,18.6267 -16.44,28.28 -4.96,9.6934 -9.6666,19.52 -13.5866,29.6534003 -4.16,10.04 -7.4934,20.3865997 -10.2667,30.8799997 l -2.04,7.88 -1.5733,8 c -1.3467,5.2933 -1.6267,10.7333 -2.6534,16.1333 l -2.2133,-0.12 c 0.1333,-11.0667 1.1467,-22.2133 3.64,-33.0533 2.4533,-10.84 5.68,-21.5333997 9.88,-31.8133997 4.28,-10.2400003 8.9733,-20.3200003 14.6133,-29.8800003 5.6,-9.5733 11.72,-18.8 18.88,-27.32 l 1.76,1.36"
         style="fill:#e28b6d;fill-opacity:1;fill-rule:nonzero;stroke:none;stroke-width:0.133333"
         id="path1354" />
      <path
         d="m -1931.8238,-31.126914 c -1.6533,9.0133 -3.6,17.96 -5.6,26.8800003 -1.92,8.9467 -4.2266,17.7999997 -6.2666,26.7066997 l -6.7734,26.5733 c -2.3733,8.8267 -4.7466,17.6533 -7.4,26.4267 l -2.1733,-0.4667 c 1.1867,-9.12 2.9333,-18.12 4.7467,-27.1067 1.8933,-8.96 3.9733,-17.88 6.1333,-26.7733 2.3467,-8.8533 4.5067,-17.7466997 7.08,-26.5332997 2.52,-8.8134003 5.12,-17.5867003 8.1067,-26.2800003 l 2.1466,0.5733"
         style="fill:#e28b6d;fill-opacity:1;fill-rule:nonzero;stroke:none;stroke-width:0.133333"
         id="path1356" />
      <path
         d="m -1901.6771,-54.606914 c 3.24,31.0933 1.8267,62.4667003 -2.7733,93.4 -1.2534,7.7067 -2.5867,15.4267 -4.4534,23.04 -0.88,3.8267 -1.8266,7.6267 -2.92,11.3867 l -0.7866,2.84 -0.36,1.32 c 0.053,-0.1334 0.027,-0.4534 -0.1067,-0.6534 -0.1733,-0.4266 -0.92,-0.5466 -1.2933,-0.2666 l 1.9866,-1.76 c 5.8267,-5.16 11.7067,-10.2667 17.6667,-15.2934 l 9.04,-7.4533 c 1.6,-1.2667 2.92,-2.3467 4.8133,-3.7333 2.6667,-1.8267 6.52,-1.5067 8.8667,0.7733 1.1867,0.9867 1.9733,2.9467 2.1067,4 l 0.5733,3.0267 c 0.2133,2.0133 0.56,4.04 0.5867,6.0666 0.12,2.0134 0.1866,4.04 0.067,6.04 -0.04,2.0267 -0.12,4.0267 -0.3866,6.0134 -0.7067,7.9866 -2.5867,15.76 -4.9867,23.2933 -4.8933,15.066704 -11.9733,29.226704 -20.2267,42.560004 -8.3066,13.2933 -17.76,25.7733 -27.68,37.8133 -5.0133,5.9867 -10.3733,11.6534 -15.5333,17.4934 l -16.3067,16.7333 -1.5866,-1.56 15.6,-17.24 c 4.9066,-5.9867 10.0133,-11.8133 14.76,-17.92 9.5733,-12.1333 18.6666,-24.6533 26.5466,-37.88 7.7467,-13.28 14.7334,-27.0533 19.28,-41.613304 2.2534,-7.2534 4,-14.6934 4.6134,-22.2 0.24,-1.8667 0.2933,-3.7467 0.32,-5.6134 0.093,-1.88 0.013,-3.7333 -0.093,-5.5866 -0.04,-1.8667 -0.3733,-3.68 -0.5733,-5.52 l -0.52,-2.6934 c -0.16,-0.8666 -0.2,-0.7866 -0.4533,-1.1066 -0.4534,-0.4667 -1.3334,-0.5734 -1.8934,-0.1734 l -4.4133,3.3867 -8.9867,7.3067 c -5.9466,4.9466 -11.8266,10 -17.6666,15.1066 l -2.3867,2.0534 c -1.9467,1.56 -5.2133,0.8533 -6.3733,-1.2667 -0.6534,-1.0267 -0.7867,-2.4 -0.4934,-3.4533 l 0.4134,-1.4934 0.7866,-2.7733 c 1.0934,-3.6933 2.0667,-7.4133 2.9467,-11.16 1.8267,-7.48 3.3467,-15.04 4.7333,-22.6267 2.6134,-15.2133 4.2934,-30.5999997 5.2267,-46.0399997 0.9333,-15.4133003 1.28,-30.9466003 0.1067,-46.3466003 l 2.2133,-0.2267"
         style="fill:#e28b6d;fill-opacity:1;fill-rule:nonzero;stroke:none;stroke-width:0.133333"
         id="path1358" />
      <path
         d="m -2832.5638,975.95309 c 0,0 -171.7186,-67.7333 -241.844,61.85331 -88.176,162.9467 44.3147,354.4267 44.3147,354.4267 h 233.0707 l -35.5414,-416.28001"
         style="fill:#fbc343;fill-opacity:1;fill-rule:nonzero;stroke:none;stroke-width:0.133333"
         id="path1360" />
      <path
         d="m -3000.6664,1029.3798 c -4.3774,4.5333 -8.1094,9.6533 -11.4627,14.9866 -3.3813,5.32 -6.176,11.0134 -8.7133,16.8 -5.0334,11.5867 -8.8694,23.72 -11.528,36.0933 -5.3587,24.7734 -7.0707,50.28 -5.8814,75.6 1.1054,25.36 5.364,50.5334 11.6934,75.1334 6.4613,24.6 15.4373,48.52 26.112,71.72 l -1.9867,0.9866 c -2.9093,-5.7066 -5.984,-11.36 -8.588,-17.24 -1.3267,-2.92 -2.7667,-5.8 -4.004,-8.76 l -3.768,-8.88 c -4.7213,-11.9733 -8.9747,-24.1333 -12.556,-36.5066 -6.9707,-24.8 -11.4533,-50.3867 -12.5547,-76.1867 -1.1186,-25.7733 0.7374,-51.8 6.8574,-76.9467 3.0306,-12.56 7.1866,-24.8933 12.7013,-36.6133 2.832,-5.8266 5.9213,-11.5466 9.612,-16.8933 3.6373,-5.3733 7.7413,-10.4533 12.52,-14.8933 l 1.5467,1.6"
         style="fill:#102048;fill-opacity:1;fill-rule:nonzero;stroke:none;stroke-width:0.133333"
         id="path1362" />
      <path
         d="m -2389.6238,407.65979 c 56.32,34.3733 95.24,13.9333 106.6134,-23.16 11.3733,-37.08 52.9466,-176.8134 -120.8267,-154.28 0,0 -212.956,-85.8667 -303.0693,40.8133 -79.4974,111.7467 -6.5574,189 -128.0267,281.6533 -84.7,64.6134 -180.7213,178.1334 9.7533,372.28 l 206.5827,-56.92 228.9733,-460.3866"
         style="fill:#ae5140;fill-opacity:1;fill-rule:nonzero;stroke:none;stroke-width:0.133333"
         id="path1364" />
      <path
         d="m -2453.7838,569.68639 c 4.2134,19.6534 49.7867,70.56 68.0134,89.6667 55.1333,57.72 67.2933,166.0267 -89.88,199.12 l -88.4254,-205.9733 110.292,-82.8134"
         style="fill:#6f3428;fill-opacity:1;fill-rule:nonzero;stroke:none;stroke-width:0.133333"
         id="path1366" />
      <path
         d="m -2445.9438,595.44639 -18.5866,85.56 -28.88,133.16 -161.1974,-34.0533 37.9254,-261.1467 164.3786,73.6267 6.36,2.8533"
         style="fill:#f9b384;fill-opacity:1;fill-rule:nonzero;stroke:none;stroke-width:0.133333"
         id="path1368" />
      <path
         d="m -2346.7571,426.25979 c 0,0 46.52,52.16 44.88,65.4266 -1.64,13.28 -44.88,37.0667 -44.88,37.0667 v -102.4933"
         style="fill:#e28b6d;fill-opacity:1;fill-rule:nonzero;stroke:none;stroke-width:0.133333"
         id="path1370" />
      <path
         d="m -2445.9438,595.44639 -18.5866,85.56 c -49.5867,-26.3733 -85.7427,-91.6533 -85.7427,-91.6533 l 97.9693,3.24 6.36,2.8533"
         style="fill:#e28b6d;fill-opacity:1;fill-rule:nonzero;stroke:none;stroke-width:0.133333"
         id="path1372" />
      <path
         d="m -2335.8638,544.95309 c -6.5333,49.5733 -23.0266,87.6667 -58.28,91.08 -97.4533,9.44 -237.72,-99.72 -237.72,-99.72 l 7.5627,-199.92 105.984,-65.3867 171.5333,31.84 c 2.0534,22.5734 12.5734,91.6 14.28,161.0267 0.68,27.9733 -0.067,56 -3.36,81.08"
         style="fill:#f9b384;fill-opacity:1;fill-rule:nonzero;stroke:none;stroke-width:0.133333"
         id="path1374" />
      <path
         d="m -2319.8238,336.39309 -21.1466,16.2933 c -110.2534,-86.0266 -87.4,37.8934 -97.64,77.5867 -10.2267,39.68 -62.48,29.2267 -103.248,3.5733 l -7.2774,55.56 -122.5293,3.8667 -7.1067,-155.28 122.1867,-95.52 226.188,44.12 10.5733,49.8"
         style="fill:#ae5140;fill-opacity:1;fill-rule:nonzero;stroke:none;stroke-width:0.133333"
         id="path1376" />
      <path
         d="m -2478.1171,912.96639 c 60.1867,-32.2933 43.12,-116.56 19.6933,-145.4 -23.4266,-28.84 -122.9786,-77.2266 -135.0533,-168.0266 -6.716,-50.5067 44.3413,-110.1334 44.3413,-110.1334 l -103.576,-55.5733 -106.1346,166.8667 80.0746,286.5733 200.6547,25.6933"
         style="fill:#ae5140;fill-opacity:1;fill-rule:nonzero;stroke:none;stroke-width:0.133333"
         id="path1378" />
      <path
         d="m -2403.1304,1375.4731 -505.176,0.3466 c -22.06,-323.4666 58.5626,-488.86661 128.272,-570.11991 43.8933,-51.12 110.1893,-76.4134 177.0546,-68.2267 58.1654,7.16 108.6494,34.8 159.8227,155.2267 l -239.14,111.21331 153.5133,270.2933 c 15.4134,27.1867 37.76,49.8133 64.7067,65.6133 l 60.9467,35.6534"
         style="fill:#708cd5;fill-opacity:1;fill-rule:nonzero;stroke:none;stroke-width:0.133333"
         id="path1380" />
      <path
         d="m -2682.2971,1003.9131 c 0,0 75.168,300.8666 103.0267,340.4533 29.004,41.2267 91.2733,30.8667 199.7933,31.1067 336.0933,0.72 0,0 0,0 l -137.0933,-305.44 -165.7267,-66.12"
         style="fill:#1f3c88;fill-opacity:1;fill-rule:nonzero;stroke:none;stroke-width:0.133333"
         id="path1382" />
      <path
         d="m -2068.9971,1293.6864 -21.7333,79.9467 -288.7467,1.84 h -23.6533 l -60.9467,-35.6534 c -26.9467,-15.8 -49.2933,-38.4266 -64.7067,-65.6133 l -153.5133,-270.2933 239.14,-111.21331 c 25.7067,60.32 51.52,144.01331 78.52,259.99991 3.64,15.64 14.5067,28.72 29.2267,35.1467 l 266.4133,105.84"
         style="fill:#708cd5;fill-opacity:1;fill-rule:nonzero;stroke:none;stroke-width:0.133333"
         id="path1384" />
      <path
         d="m -2516.5704,455.83309 c -8.68,-48.1733 -65.8387,-54.5467 -75.7894,-22 -9.9493,32.5467 -7.5213,88.4667 64.256,85.1467 l 11.5334,-63.1467"
         style="fill:#f9b384;fill-opacity:1;fill-rule:nonzero;stroke:none;stroke-width:0.133333"
         id="path1386" />
      <path
         d="m -2539.5078,459.61979 -8.9466,-10.2134 c -2.972,-3.1866 -6.0507,-6.2533 -9.2547,-8.08 -3.2667,-1.8266 -5.8547,-2.3466 -8.8587,-0.7466 -3.0773,1.5733 -6.0253,4.9066 -9.0786,8.32 l -2.9827,-1.4934 c 1.2707,-4.68 3.348,-9.5066 8.0147,-13.12 2.2333,-1.88 5.5493,-2.8933 8.7253,-2.92 3.1933,0.16 6.1493,1.16 8.484,2.6534 4.764,2.92 8.036,6.84 10.7093,10.9333 2.6574,4.1067 4.7227,8.4533 6.1067,13.0533 l -2.9187,1.6134"
         style="fill:#e28b6d;fill-opacity:1;fill-rule:nonzero;stroke:none;stroke-width:0.133333"
         id="path1388" />
      <path
         d="m -2338.3704,560.76639 c 0.96,-5.12 1.8,-10.4 2.5066,-15.8133 1.0267,-7.7867 1.8,-15.84 2.36,-24.1067 0.04,-0.013 0.08,-0.04 0.1067,-0.067 -0.9067,14.52 -2.4667,28.5733 -4.9733,39.9866"
         style="fill:#8986bc;fill-opacity:1;fill-rule:nonzero;stroke:none;stroke-width:0.133333"
         id="path1390" />
      <path
         d="m -2333.5038,520.84639 c 0.6,-8.72 0.96,-17.6533 1.12,-26.6933 -0.1333,8.7333 -0.4533,17.7733 -1.0133,26.6267 -0.027,0.027 -0.067,0.053 -0.1067,0.067 m 1,-56.7066 c 0,-0.093 0,-0.1734 0,-0.2667 0,0.093 0,0.1733 0,0.2667"
         style="fill:#e48569;fill-opacity:1;fill-rule:nonzero;stroke:none;stroke-width:0.133333"
         id="path1392" />
      <path
         d="m -2338.5704,560.83309 c -3.9467,0 -48.0934,-13.4533 -48.0934,-55.8267 0,-23.0266 20.16,-42.6666 43.1867,-42.6666 3.8,0 7.5067,0.5066 10.9733,1.5333 v 0 c 0,0.093 0,0.1733 0,0.2667 0.2134,8.9066 0.3067,19.2266 0.12,30.0133 -0.16,9.04 -0.52,17.9733 -1.12,26.6933 -0.56,8.2667 -1.3333,16.32 -2.36,24.1067 -0.7066,5.4133 -1.5466,10.6933 -2.5066,15.8133 -0.013,0.013 -0.013,0.027 -0.013,0.053 -0.053,0.013 -0.1066,0.013 -0.1866,0.013"
         style="fill:#f7a57b;fill-opacity:1;fill-rule:nonzero;stroke:none;stroke-width:0.133333"
         id="path1394" />
      <path
         d="m -1505.6238,1378.5664 h -600.96 l 113.52,-488.96001 h 600.96 l -113.52,488.96001"
         style="fill:#1f3c88;fill-opacity:1;fill-rule:nonzero;stroke:none;stroke-width:0.133333"
         id="path1396" />
      <path
         d="m -1505.6238,1378.5664 h -600.96 c 287.4667,-47.4133 542.7067,-91.4667 714.48,-488.96001 l -88.88,382.80001 c -0.36,0.2267 -0.72,0.4533 -1.08,0.68 -33.2667,21.2667 -81.08,47.5333 -111.6133,71.4133 -13.8134,10.7467 -4.2667,32.4667 5.0666,32.4667 l 83.4134,-0.28 -0.4267,1.88"
         style="fill:#162b62;fill-opacity:1;fill-rule:nonzero;stroke:none;stroke-width:0.133333"
         id="path1398" />
      <path
         d="m -1716.1038,1148.0197 c -9.1467,21.8267 -31.4533,33.2667 -49.8,25.5734 -18.3733,-7.7067 -25.8267,-31.6267 -16.68,-53.4534 9.1467,-21.8133 31.4533,-33.2666 49.8133,-25.56 18.36,7.6934 25.8267,31.6267 16.6667,53.44"
         style="fill:#ffffff;fill-opacity:1;fill-rule:nonzero;stroke:none;stroke-width:0.133333"
         id="path1400" />
      <path
         d="m -760.77047,1016.9398 -1.8133,49.6933 -8.1867,222.72 v 0.28 c -0.68,16.8266 -5.12,33.0933 -12.68,47.76 -7.5733,14.56 -18.3733,27.52 -31.7866,37.8133 h -250.40003 l -522.9734,1.76 c -9.3333,0 -18.88,-21.72 -5.0666,-32.4667 30.5333,-23.88 78.3466,-50.1466 111.6133,-71.4133 18.36,-11.7067 40.2533,-16.8267 61.8533,-14.04 36,4.6 87.9067,22.8533 152.4934,3.8133 11.2,-3.3066 22.5733,-5.8666 34.0666,-7.6266 l 210.48,-32.3467 82.84003,-12.7333 2.3334,-140.3333 0.7466,-42.4667 c 7.8934,-2.1067 15.9734,-3.9867 24.28,-5.64 43.4934,-8.64 93.12,-11.3067 152.2,-4.7733"
         style="fill:#f9b384;fill-opacity:1;fill-rule:nonzero;stroke:none;stroke-width:0.133333"
         id="path1402" />
      <path
         d="m -762.58377,1066.6331 c -28.48,-10 -132.8,-39.8 -168.0133,-39.8 -2.6267,0 -4.8667,0.16 -6.6534,0.52 7.8934,-2.1067 15.9734,-3.9867 24.28,-5.64 26.9467,-5.3467 56.2534,-8.4133 88.6934,-8.4133 19.9333,0 41.04,1.16 63.5066,3.64 l -1.8133,49.6933"
         style="fill:#eb9b76;fill-opacity:1;fill-rule:nonzero;stroke:none;stroke-width:0.133333"
         id="path1404" />
      <path
         d="m -815.23707,1375.2064 h -76.08 c 11.3466,-62.3733 53.3066,-88.1067 97.5333,-88.1067 7.6533,0 15.36,0.76 23.0133,2.2534 v 0.28 c -0.68,16.8266 -5.12,33.0933 -12.68,47.76 -7.5733,14.56 -18.3733,27.52 -31.7866,37.8133"
         style="fill:#f69e76;fill-opacity:1;fill-rule:nonzero;stroke:none;stroke-width:0.133333"
         id="path1406" />
      <path
         d="m -972.13047,1213.3664 c 8.8934,-3.5867 18.2267,-6.6267 27.92,-7.7467 9.6267,-1.5066 19.48,-1.44 29.1734,-0.4 9.7066,1.0267 19.2666,3.2934 28.3733,6.72 9.1467,3.36 17.7733,7.8667 25.56,13.8667 l -1.84,2.7733 c -8.36,-3.8933 -17.2267,-6.9733 -26.0533,-9.52 -8.8667,-2.5333 -17.8934,-4.4 -27.0134,-5.4 -9.0933,-1.08 -18.2933,-1.4266 -27.48,-0.8 -9.2266,0.3734 -18.3466,2.0134 -27.6133,3.68 l -1.0267,-3.1733"
         style="fill:#e28b6d;fill-opacity:1;fill-rule:nonzero;stroke:none;stroke-width:0.133333"
         id="path1408" />
      <path
         d="M -349.33047,1442.9397 H -3384.1704 v -67.24 h 3034.83993 v 67.24"
         style="fill:#d3dfff;fill-opacity:1;fill-rule:nonzero;stroke:none;stroke-width:0.133333"
         id="path1410" />
      <path
         d="m -3384.1704,1379.8197 h 3034.83993 v -8 H -3384.1704 Z"
         style="fill:#102048;fill-opacity:1;fill-rule:nonzero;stroke:none;stroke-width:0.133333"
         id="path1412" />
      <path
         d="m -2930.0064,190.45979 c -23.2907,-125.680004 -144.052,-208.680004 -269.7267,-185.3867037 -125.676,23.2932997 -208.6746,144.0533037 -185.3826,269.7200037 23.2906,125.68 144.0506,208.68 269.7253,185.3867 31.452,-5.8267 60.2306,-17.76 85.3386,-34.3467 l 80.0614,34.9067 -38.5254,-70.0667 c 48.3854,-51.84 72.4227,-125.1467 58.5094,-200.2133"
         style="fill:#f1b000;fill-opacity:1;fill-rule:nonzero;stroke:none;stroke-width:0.133333"
         id="path1414" />
      <path
         d="m -3244.1731,313.40639 v -70.4133 l -4.1066,2.04 c -4.22,2.0933 -8.7854,3.16 -13.5694,3.16 -16.9773,0 -30.7893,-13.8133 -30.7893,-30.8 0,-17 13.812,-30.8267 30.7893,-30.8267 4.764,0 9.3347,1.0534 13.5867,3.1334 l 4.0893,1.9866 v -70.3333 h 60.98 c -0.9573,3.2667 -1.4427,6.6533 -1.4427,10.1333 0,20.1334 16.38,36.5067 36.5134,36.5067 20.1333,0 36.512,-16.3733 36.512,-36.5067 0,-3.48 -0.484,-6.8666 -1.4427,-10.1333 h 60.9813 v 61.5333 c -3.8013,-1.3333 -7.8173,-2 -11.988,-2 -20.1333,0 -36.5133,16.3734 -36.5133,36.5067 0,20.12 16.38,36.48 36.5133,36.48 4.0814,0 8.156,-0.7067 11.988,-2.04 v 61.5733 h -192.1013"
         style="fill:#ffffff;fill-opacity:1;fill-rule:nonzero;stroke:none;stroke-width:0.133333"
         id="path1416" />
      <path
         d="m -3049.2278,118.49979 h -67.8586 c 1.7066,4.0133 2.6333,8.3866 2.6333,12.9866 0,18.5734 -15.092,33.6667 -33.6693,33.6667 -18.5774,0 -33.6694,-15.0933 -33.6694,-33.6667 0,-4.6 0.9267,-8.9733 2.632,-12.9866 h -67.8573 v 68.64 c -4.4866,-2.1867 -9.492,-3.4134 -14.832,-3.4134 -18.5773,0 -33.632,15.0534 -33.632,33.6667 0,18.5867 15.0547,33.64 33.632,33.64 5.34,0 10.3454,-1.2267 14.832,-3.4533 v 68.68 h 197.7893 v -68.72 c -4.4506,2.2266 -9.4933,3.4933 -14.832,3.4933 -18.6146,0 -33.6693,-15.0533 -33.6693,-33.64 0,-18.6133 15.0547,-33.6667 33.6693,-33.6667 5.3387,0 10.3814,1.2267 14.832,3.4534 z m -5.6866,5.6933 v 54.9067 c -2.9534,-0.7067 -6.0094,-1.0534 -9.1454,-1.0534 -21.7013,0 -39.356,17.6534 -39.356,39.3467 0,21.68 17.6547,39.32 39.356,39.32 3.08,0 6.1587,-0.36 9.1454,-1.0933 v 54.9466 h -186.4173 v -62.9866 -9.16 l -8.2107,4.0666 c -3.8227,1.8934 -7.964,2.8534 -12.3067,2.8534 -15.4093,0 -27.9466,-12.5334 -27.9466,-27.9467 0,-15.4267 12.5373,-27.9733 27.9466,-27.9733 4.328,0 8.48,0.9466 12.34,2.8266 l 8.1774,3.9867 v -9.0933 -62.9467 h 54.5333 c -0.452,2.3867 -0.6787,4.8133 -0.6787,7.2933 0,21.6934 17.6533,39.3467 39.3547,39.3467 21.7,0 39.3546,-17.6533 39.3546,-39.3467 0,-2.48 -0.228,-4.9066 -0.68,-7.2933 h 54.5334"
         style="fill:#8cbfbe;fill-opacity:1;fill-rule:nonzero;stroke:none;stroke-width:0.133333"
         id="path1418" />
      <path
         d="m -728.38377,193.24639 c 7.7067,-127.573304 117.3867,-224.760004 244.9733,-217.053304 127.5733,7.7067 224.76,117.3867 217.0533,244.973304 -7.7066,127.5734 -117.3866,224.76 -244.9733,217.0534 -31.92,-1.9334 -61.9466,-10.2534 -88.8933,-23.64 l -75.1867,44.4666 29.64,-74.2666 c -54.3733,-45.5067 -87.2133,-115.32 -82.6133,-191.5334"
         style="fill:#76c5ec;fill-opacity:1;fill-rule:nonzero;stroke:none;stroke-width:0.133333"
         id="path1420" />
      <path
         d="m -457.98377,304.79309 c -6.0267,-12.6 -18.7067,-20.6533 -32.8,-20.6533 -14.0934,0 -26.76,8.0533 -32.7334,20.6533 h -63.4666 v -70.36 l -3.8533,1.9333 c -4.2534,2.12 -8.84,3.2 -13.64,3.2 -17.0934,0 -31,-13.8933 -31,-30.96 0,-17.0933 13.9066,-31 31,-31 4.84,0 9.44,1.0534 13.64,3.16 l 3.8533,1.9334 v -70.32 h 68.2133 l -1.24,-3.56 c -1.16,-3.28 -1.7467,-6.7334 -1.7467,-10.240004 0,-17.0934 13.8934,-31 30.9734,-31 17.0933,0 31,13.9066 31,31 0,3.506604 -0.5867,6.960004 -1.7467,10.240004 l -1.24,3.56 h 68.2133 v 192.4133 h -63.4266"
         style="fill:#ffffff;fill-opacity:1;fill-rule:nonzero;stroke:none;stroke-width:0.133333"
         id="path1422" />
      <path
         d="m -490.78377,64.913086 c -18.5867,0 -33.64,15.0933 -33.64,33.6667 0,3.893304 0.6666,7.640004 1.8933,11.133304 h -67.12 v 68.6667 c -4.44,-2.2267 -9.4933,-3.44 -14.8266,-3.44 -18.6134,0 -33.6667,15.0533 -33.6667,33.6666 0,18.5734 15.0533,33.6267 33.6667,33.6267 5.3333,0 10.3866,-1.2533 14.8266,-3.48 v 68.7067 h 67.8667 c 5.04,-12.12 17.0133,-20.6534 31,-20.6534 14.0133,0 25.9866,8.5334 31.0666,20.6534 h 67.8267 v -197.7467 h -67.12 c 1.2267,-3.4933 1.8933,-7.24 1.8933,-11.133304 0,-18.5734 -15.0533,-33.6667 -33.6666,-33.6667 z m 0,5.3333 c 15.6133,0 28.3333,12.72 28.3333,28.3334 0,3.213304 -0.5333,6.360004 -1.5867,9.360004 l -2.4933,7.1066 h 7.52 61.7867 v 187.08 h -59.12 c -6.7334,-12.6533 -19.8934,-20.6533 -34.44,-20.6533 -14.56,0 -27.68,8 -34.3867,20.6533 h -59.1466 v -63.3733 -8.6267 l -7.72,3.8534 c -3.8667,1.9333 -8.0667,2.92 -12.44,2.92 -15.6267,0 -28.3334,-12.6934 -28.3334,-28.2934 0,-15.6266 12.7067,-28.3333 28.3334,-28.3333 4.4266,0 8.6133,0.96 12.44,2.88 l 7.72,3.8533 v -8.6266 -63.3334 h 61.7866 7.52 l -2.4933,-7.1066 c -1.0534,-3 -1.5867,-6.1467 -1.5867,-9.360004 0,-15.6134 12.6933,-28.3334 28.3067,-28.3334"
         style="fill:#708cd5;fill-opacity:1;fill-rule:nonzero;stroke:none;stroke-width:0.133333"
         id="path1424" />
      <path
         d="m -1908.7171,-209.79361 v -6.3866 c 0,-20.5067 9.1067,-39.7734 24.0133,-54.8533 13.6267,-13.7734 21.9467,-32.1334 21.9467,-52.3334 0,-42.7733 -37.24,-77.4533 -83.16,-77.4533 -1.3867,0 -2.7733,0.027 -4.1867,0.093 -42.4133,1.9334 -77.1333,34.5067 -78.9066,74.0267 -1,22.0533 7.9333,42.1467 22.96,56.76 15.9333,15.5066 25.72,35.6 25.72,57.0666 v 3.08 c -55.12,-15.0933 -95.6534,-70.1466 -95.6534,-130.0666 0,-71.8267 58.2267,-130.0533 130.0667,-130.0533 71.8267,0 130.0533,58.2266 130.0533,130.0533 0,58.36 -39.9067,113.6 -92.8533,130.0666"
         style="fill:#fef3d9;fill-opacity:1;fill-rule:nonzero;stroke:none;stroke-width:0.133333"
         id="path1426" />
      <path
         d="m -1951.6104,-503.23351 h 11.3734 v -97.1131 h -11.3734 z"
         style="fill:#fbc343;fill-opacity:1;fill-rule:nonzero;stroke:none;stroke-width:0.133333"
         id="path1428" />
      <path
         d="m -2033.6238,-480.22021 -85.12,-63.5467 -6.8,9.12 85.12,63.5334"
         style="fill:#fbc343;fill-opacity:1;fill-rule:nonzero;stroke:none;stroke-width:0.133333"
         id="path1430" />
      <path
         d="m -1851.4238,-471.11351 85.12,-63.5334 -6.8,-9.12 -85.12,63.5467"
         style="fill:#fbc343;fill-opacity:1;fill-rule:nonzero;stroke:none;stroke-width:0.133333"
         id="path1432" />
      <path
         d="m -1986.9571,-495.71351 -17.76,-45.56 -10.6,4.1333 17.76,45.56"
         style="fill:#fbc343;fill-opacity:1;fill-rule:nonzero;stroke:none;stroke-width:0.133333"
         id="path1434" />
      <path
         d="m -1894.2904,-491.58021 17.76,-45.56 -10.6,-4.1333 -17.7467,45.56"
         style="fill:#fbc343;fill-opacity:1;fill-rule:nonzero;stroke:none;stroke-width:0.133333"
         id="path1436" />
      <path
         d="m -1862.7571,-323.36691 c 0,-44.0666 -39.5067,-79.5466 -87.3467,-77.36 -42.4133,1.9334 -77.1333,34.5067 -78.9066,74.0267 -1,22.0533 7.9333,42.1467 22.96,56.76 15.9333,15.5066 25.72,35.6 25.72,57.0666 v 3.08 h 71.6133 v -6.3866 c 0,-20.5067 9.1067,-39.7734 24.0133,-54.8533 13.6267,-13.7734 21.9467,-32.1334 21.9467,-52.3334"
         style="fill:#fbc343;fill-opacity:1;fill-rule:nonzero;stroke:none;stroke-width:0.133333"
         id="path1438" />
      <path
         d="m -1945.9171,-146.19361 v 0 c -19.7867,0 -35.8133,-16.04 -35.8133,-35.8133 v -1.76 h 71.6133 v 1.76 c 0,19.7733 -16.0267,35.8133 -35.8,35.8133"
         style="fill:#fbc343;fill-opacity:1;fill-rule:nonzero;stroke:none;stroke-width:0.133333"
         id="path1440" />
      <path
         d="m -1972.5971,-315.11351 c -10.8667,0 -19.6667,-8.8 -19.6667,-19.6667 0,-10.8533 8.8,-19.6533 19.6667,-19.6533 10.8533,0 19.6667,8.8 19.6667,19.6533 0,10.8667 -8.8134,19.6667 -19.6667,19.6667"
         style="fill:#fef3d9;fill-opacity:1;fill-rule:nonzero;stroke:none;stroke-width:0.133333"
         id="path1442" />
      <path
         d="m -1227.7038,-125.90021 v -44.04 h -21.0133 c -2.72,-12.3867 -7.68,-23.9334 -14.4534,-34.2 l 15.0667,-15.0667 -31.1333,-31.1333 -15.44,15.4266 c -10.2134,-6.3733 -21.6267,-11.0266 -33.8267,-13.4933 v -22.3333 h -44.04 v 23.1066 c -11.7333,2.8 -22.6933,7.6 -32.4933,14.0534 l -16.76,-16.76 -31.1467,31.1333 17.1333,17.1333 c -6.08,9.7467 -10.5733,20.5734 -13.1066,32.1334 h -24.4267 v 44.04 h 24.4267 c 2.5333,11.56 7.0266,22.3866 13.1066,32.119996 l -17.1333,17.1466 31.1467,31.1334 16.76,-16.76 c 9.8,6.4533 20.76,11.2533 32.4933,14.0533 v 23.1067 h 44.04 v -22.3334 c 12.2,-2.4666 23.6133,-7.12 33.8267,-13.5066 l 15.44,15.44 31.1333,-31.1334 -15.0667,-15.0666 c 6.7734,-10.266696 11.7334,-21.813396 14.4534,-34.199996 h 21.0133"
         style="fill:#2a295b;fill-opacity:1;fill-rule:nonzero;stroke:none;stroke-width:0.133333"
         id="path1444" />
      <path
         d="m -1281.7971,-147.91361 c 0,37.9467 -30.76,68.719996 -68.72,68.719996 -37.96,0 -68.7334,-30.773296 -68.7334,-68.719996 0,-37.96 30.7734,-68.7333 68.7334,-68.7333 37.96,0 68.72,30.7733 68.72,68.7333"
         style="fill:#ffffff;fill-opacity:1;fill-rule:nonzero;stroke:none;stroke-width:0.133333"
         id="path1446" />
      <path
         d="m -1003.9571,-195.39361 9.89333,-30.32 -14.46673,-4.72 c 0.9067,-9.1333 0.08,-18.2 -2.2666,-26.8 l 13.74663,-6.9733 -14.44003,-28.44 -14.08,7.16 c -5.6133,-6.6933 -12.4266,-12.4666 -20.2666,-16.8933 l 5.0266,-15.3867 -30.32,-9.8933 -5.2,15.9067 c -8.7066,-0.72 -17.3333,0.1333 -25.5333,2.3733 l -7.7733,-15.3067 -28.44,14.44 7.9466,15.64 c -6.3733,5.3467 -11.9066,11.7867 -16.2533,19.1734 l -16.8133,-5.48 -9.8934,30.3199 16.8134,5.48 c -0.84,8.5334 -0.1867,17 1.8133,25.0667 l -15.6533,7.9467 14.44,28.44 15.3066,-7.7734 c 5.3067,6.64 11.7734,12.4134 19.2267,16.9867 l -5.2,15.9067 30.32,9.8933 5.0267,-15.3733 c 8.9466,1.04 17.8533,0.4133 26.32,-1.6934 l 7.16,14.0934 28.4266,-14.44 -6.9733,-13.7467 c 6.96,-5.56 12.9733,-12.3867 17.6267,-20.3067 l 14.48,4.72"
         style="fill:#2a295b;fill-opacity:1;fill-rule:nonzero;stroke:none;stroke-width:0.133333"
         id="path1448" />
      <path
         d="m -1036.2638,-222.70021 c -8.52,26.1333 -36.6267,40.4 -62.76,31.8666 -26.1333,-8.5333 -40.4133,-36.6266 -31.88,-62.7733 8.5333,-26.1333 36.64,-40.4 62.7733,-31.8666 26.1334,8.5333 40.4,36.6266 31.8667,62.7733"
         style="fill:#ffffff;fill-opacity:1;fill-rule:nonzero;stroke:none;stroke-width:0.133333"
         id="path1450" />
      <path
         d="m -2408.5971,-106.67361 22.2,-30.32 -14.4667,-10.6 c 4.3734,-9.9066 6.7734,-20.36 7.2934,-30.84 l 17.96,-2.7733 -5.7334,-37.1467 -18.4,2.8534 c -3.8266,-9.56 -9.3333,-18.5067 -16.4933,-26.36 l 11.2667,-15.3867 -30.32,-22.2 -11.6534,15.92 c -9.4933,-4 -19.4666,-6.2133 -29.4666,-6.72 l -3.0934,-19.9866 -37.1466,5.7333 3.16,20.44 c -9.1067,3.64 -17.6534,8.8266 -25.232,15.5066 l -16.816,-12.32 -22.2054,30.32 16.8174,12.32 c -4.0787,9.24 -6.448,18.96 -7.1707,28.7334 l -20.4373,3.16 5.7373,37.1466 19.9947,-3.0933 c 3.492,9.3867 8.616,18.2267 15.292,26.0667 l -11.656,15.92 30.316,22.199996 11.2666,-15.386696 c 9.64,4.466696 19.8534,7.013296 30.1067,7.773296 l 2.84,18.4134 37.1467,-5.7467 -2.7734,-17.959996 c 9.8267,-3.6667 19.0667,-9.1067 27.1867,-16.2667 l 14.48,10.6"
         style="fill:#2a295b;fill-opacity:1;fill-rule:nonzero;stroke:none;stroke-width:0.133333"
         id="path1452" />
      <path
         d="m -2434.7438,-149.11361 c -19.1466,26.1334 -55.8533,31.8134 -81.9866,12.6667 -26.1347,-19.1333 -31.8067,-55.8533 -12.6667,-81.9867 19.1467,-26.1333 55.8533,-31.8 81.9867,-12.6666 26.1333,19.1466 31.8133,55.8533 12.6666,81.9866"
         style="fill:#ffffff;fill-opacity:1;fill-rule:nonzero;stroke:none;stroke-width:0.133333"
         id="path1454" />
      <path
         d="m -2680.1771,-172.84691 22.1027,-15.88 -7.5814,-10.5467 c 5.2347,-5.84 9.2414,-12.4933 11.9574,-19.6 l 12.9906,2.1334 4.396,-26.8667 -13.312,-2.1733 c -0.4813,-7.44 -2.2666,-14.84 -5.4306,-21.8533 l 11.2146,-8.0534 -15.8853,-22.1066 -11.6013,8.3333 c -5.6374,-4.88 -12.0067,-8.6533 -18.78,-11.24 l 2.368,-14.4667 -26.8614,-4.3866 -2.42,14.7733 c -7.0853,0.4667 -14.1413,2.12 -20.8586,5.0133 l -8.8107,-12.2666 -22.1013,15.8933 8.8093,12.2533 c -4.884,5.44 -8.7,11.6134 -11.3947,18.1734 l -14.7813,-2.4134 -4.3973,26.8533 14.4613,2.3734 c 0.2947,7.24 1.836,14.48 4.6693,21.3866 l -11.6013,8.3334 15.884,22.1066 11.2147,-8.0666 c 5.6373,5.24 12.0866,9.2933 18.9786,12.12 l -2.1786,13.3066 26.86,4.4 2.1266,-12.9866 c 7.596,-0.32 15.184,-1.9867 22.3827,-5.0934 l 7.58,10.5467"
         style="fill:#2a295b;fill-opacity:1;fill-rule:nonzero;stroke:none;stroke-width:0.133333"
         id="path1456" />
      <path
         d="m -2688.6398,-207.94021 c -19.052,13.6933 -45.5986,9.3466 -59.292,-9.7067 -13.6933,-19.0533 -9.348,-45.6 9.7054,-59.2933 19.0533,-13.6933 45.5986,-9.3467 59.292,9.7067 13.6933,19.0533 9.348,45.5999 -9.7054,59.2933"
         style="fill:#ffffff;fill-opacity:1;fill-rule:nonzero;stroke:none;stroke-width:0.133333"
         id="path1458" />
    </g>
  </g>
  <metadata
     id="metadata14248">
    <rdf:RDF>
      <cc:Work
         rdf:about="">
        <dc:title>gifts</dc:title>
      </cc:Work>
    </rdf:RDF>
  </metadata>
</svg>
